<svg width="199" height="28" viewBox="0 0 199 28" fill="none" xmlns="http://www.w3.org/2000/svg">
<path d="M17.31 14.47V14.65C17.25 17.07 16.63 18.95 15.45 20.29C14.27 21.63 12.62 22.3 10.5 22.3C9.9 22.3 9.42 22.23 9.06 22.09C8.7 21.97 8.41 21.79 8.19 21.55C7.99 21.31 7.84 21.02 7.74 20.68C7.64 20.32 7.56 19.92 7.5 19.48V18.61C7.5 19.35 7.37 19.95 7.11 20.41C6.87 20.85 6.54 21.19 6.12 21.43C5.7 21.67 5.22 21.83 4.68 21.91C4.16 21.97 3.63 22 3.09 22C2.39 22 1.86 21.96 1.5 21.88C1.16 21.8 0.91 21.68 0.75 21.52C0.63 21.4 0.57 21.25 0.57 21.07C0.59 20.89 0.68 20.78 0.84 20.74C0.98 20.7 1.13 20.65 1.29 20.59C1.45 20.53 1.6 20.43 1.74 20.29C1.88 20.15 1.99 19.96 2.07 19.72C2.17 19.48 2.22 19.17 2.22 18.79V18.85L2.25 17.56V4.99C2.21 4.75 2.13 4.53 2.01 4.33C1.89 4.13 1.75 4 1.59 3.94C1.45 3.9 1.35 3.82 1.29 3.7C1.25 3.58 1.23 3.46 1.23 3.34C1.23 3.22 1.26 3.12 1.32 3.04C1.4 2.94 1.49 2.89 1.59 2.89C2.17 2.89 2.83 2.86 3.57 2.8C4.33 2.72 5.04 2.6 5.7 2.44L7.5 1.81L6.42 2.26C6.64 2.18 6.84 2.11 7.02 2.05C7.2 1.97 7.36 1.89 7.5 1.81V8.53C7.74 7.93 8.09 7.48 8.55 7.18C9.01 6.86 9.66 6.7 10.5 6.7C12.62 6.7 14.27 7.36 15.45 8.68C16.63 10 17.25 11.87 17.31 14.29V14.47ZM7.5 17.41C7.78 18.39 8.12 19.06 8.52 19.42C8.94 19.76 9.4 19.93 9.9 19.93C10.56 19.93 11.08 19.5 11.46 18.64C11.84 17.78 12.04 16.39 12.06 14.47C12.04 12.59 11.84 11.22 11.46 10.36C11.08 9.5 10.56 9.07 9.9 9.07C9.14 9.07 8.55 9.41 8.13 10.09C7.71 10.77 7.5 11.9 7.5 13.48V17.41ZM18.9108 9.79C18.8708 9.55 18.7908 9.33 18.6708 9.13C18.5508 8.93 18.4108 8.8 18.2508 8.74C18.1108 8.7 18.0108 8.62 17.9508 8.5C17.9108 8.38 17.8908 8.26 17.8908 8.14C17.8908 8.02 17.9208 7.92 17.9808 7.84C18.0608 7.74 18.1508 7.69 18.2508 7.69C18.6508 7.69 19.0908 7.67 19.5708 7.63C20.0508 7.57 20.5408 7.49 21.0408 7.39L24.1608 6.61V19.39C24.1608 19.85 24.2208 20.18 24.3408 20.38C24.4808 20.58 24.6608 20.73 24.8808 20.83C25.0008 20.87 25.0908 20.96 25.1508 21.1C25.2108 21.22 25.2408 21.35 25.2408 21.49C25.2608 21.61 25.2508 21.73 25.2108 21.85C25.1908 21.95 25.1308 22 25.0308 22H18.0408C17.9608 22 17.9008 21.95 17.8608 21.85C17.8208 21.73 17.8008 21.61 17.8008 21.49C17.8208 21.35 17.8608 21.22 17.9208 21.1C17.9808 20.96 18.0708 20.87 18.1908 20.83C18.4108 20.73 18.5808 20.58 18.7008 20.38C18.8408 20.18 18.9108 19.85 18.9108 19.39V9.79ZM18.2808 4.33C18.2808 3.69 18.5508 3.2 19.0908 2.86C19.6508 2.5 20.4208 2.32 21.4008 2.32C22.3808 2.32 23.1408 2.5 23.6808 2.86C24.2208 3.2 24.4908 3.69 24.4908 4.33C24.4908 4.97 24.2208 5.47 23.6808 5.83C23.1408 6.17 22.3808 6.34 21.4008 6.34C20.4208 6.34 19.6508 6.17 19.0908 5.83C18.5508 5.47 18.2808 4.97 18.2808 4.33ZM32.3613 22.24C30.7013 22.24 29.4613 21.87 28.6413 21.13C27.8213 20.39 27.4113 19.36 27.4113 18.04V8.53H25.5213C25.3413 8.53 25.2113 8.45 25.1313 8.29C25.0513 8.13 25.0113 7.96 25.0113 7.78C25.0113 7.58 25.0513 7.4 25.1313 7.24C25.2113 7.08 25.3413 7 25.5213 7H25.8813C27.7013 7 29.0313 6.72 29.8713 6.16C30.7313 5.6 31.1613 4.81 31.1613 3.79C31.1613 3.63 31.2413 3.51 31.4013 3.43C31.5613 3.35 31.7313 3.31 31.9113 3.31C32.0913 3.31 32.2613 3.35 32.4213 3.43C32.5813 3.51 32.6613 3.63 32.6613 3.79V7H34.9113C35.0913 7 35.2213 7.08 35.3013 7.24C35.3813 7.4 35.4213 7.58 35.4213 7.78C35.4213 7.96 35.3813 8.13 35.3013 8.29C35.2213 8.45 35.0913 8.53 34.9113 8.53H32.6613V17.32C32.6613 17.74 32.6513 18.12 32.6313 18.46C32.6313 18.8 32.6513 19.1 32.6913 19.36C32.7313 19.6 32.8213 19.81 32.9613 19.99C33.1013 20.15 33.3313 20.28 33.6513 20.38C33.9113 20.48 34.1813 20.5 34.4613 20.44C34.7613 20.36 35.0013 20.22 35.1813 20.02C35.4213 19.74 35.6613 19.65 35.9013 19.75C36.1213 19.85 36.2013 20.05 36.1413 20.35C36.0813 20.61 35.9113 20.86 35.6313 21.1C35.3713 21.34 35.0513 21.54 34.6713 21.7C34.3113 21.86 33.9213 21.99 33.5013 22.09C33.1013 22.19 32.7213 22.24 32.3613 22.24ZM42.8009 22.27C41.6409 22.27 40.5809 22.07 39.6209 21.67C38.6609 21.27 37.8409 20.72 37.1609 20.02C36.5009 19.32 35.9909 18.49 35.6309 17.53C35.2909 16.55 35.1509 15.48 35.2109 14.32C35.2709 13.24 35.5009 12.24 35.9009 11.32C36.3209 10.38 36.8609 9.57 37.5209 8.89C38.2009 8.21 38.9809 7.68 39.8609 7.3C40.7409 6.9 41.6809 6.7 42.6809 6.7C43.5609 6.7 44.3809 6.82 45.1409 7.06C45.9209 7.28 46.6009 7.6 47.1809 8.02C47.7809 8.44 48.2509 8.93 48.5909 9.49C48.9509 10.05 49.1609 10.66 49.2209 11.32C49.2209 11.38 49.2209 11.51 49.2209 11.71C49.2209 11.89 49.1909 12.08 49.1309 12.28C49.0709 12.48 48.9609 12.66 48.8009 12.82C48.6409 12.96 48.3909 13.03 48.0509 13.03L40.6109 13.09V14.32C40.6109 14.9 40.6809 15.46 40.8209 16C40.9609 16.54 41.1509 17.02 41.3909 17.44C41.6509 17.86 41.9509 18.21 42.2909 18.49C42.6309 18.77 43.0009 18.96 43.4009 19.06C43.7209 19.14 44.0209 19.2 44.3009 19.24C44.6009 19.26 44.8909 19.27 45.1709 19.27C46.3309 19.27 47.2509 18.99 47.9309 18.43C48.1109 18.29 48.2809 18.22 48.4409 18.22C48.5609 18.22 48.6909 18.27 48.8309 18.37C48.9709 18.47 49.0409 18.62 49.0409 18.82C49.0609 19 49.0209 19.14 48.9209 19.24C48.5609 19.76 48.1309 20.21 47.6309 20.59C47.1509 20.97 46.6409 21.29 46.1009 21.55C45.5609 21.79 45.0009 21.97 44.4209 22.09C43.8609 22.21 43.3209 22.27 42.8009 22.27ZM42.4109 11.38C42.7509 11.34 43.0909 11.24 43.4309 11.08C43.7909 10.92 43.9709 10.62 43.9709 10.18C43.9709 9.66 43.8509 9.24 43.6109 8.92C43.3709 8.58 43.0609 8.41 42.6809 8.41C42.0609 8.41 41.6009 8.67 41.3009 9.19C41.0209 9.69 40.8309 10.43 40.7309 11.41L42.4109 11.38ZM65.9831 22.24C64.8831 22.24 63.8631 22.05 62.9231 21.67C62.0031 21.27 61.1931 20.72 60.4931 20.02C59.8131 19.32 59.2731 18.5 58.8731 17.56C58.4931 16.6 58.3031 15.57 58.3031 14.47C58.3031 13.37 58.4931 12.35 58.8731 11.41C59.2731 10.47 59.8131 9.66 60.4931 8.98C61.1931 8.28 62.0031 7.74 62.9231 7.36C63.8631 6.96 64.8831 6.76 65.9831 6.76C67.0631 6.76 68.0631 6.96 68.9831 7.36C69.9231 7.74 70.7331 8.28 71.4131 8.98C72.0931 9.66 72.6231 10.47 73.0031 11.41C73.4031 12.35 73.6031 13.37 73.6031 14.47C73.6031 15.57 73.4031 16.6 73.0031 17.56C72.6231 18.5 72.0931 19.32 71.4131 20.02C70.7331 20.72 69.9231 21.27 68.9831 21.67C68.0631 22.05 67.0631 22.24 65.9831 22.24ZM63.7331 15.55C64.0531 17.27 64.5131 18.58 65.1131 19.48C65.7331 20.36 66.4431 20.73 67.2431 20.59C67.9831 20.47 68.4331 19.79 68.5931 18.55C68.7731 17.31 68.6331 15.63 68.1731 13.51C67.8331 11.77 67.3531 10.46 66.7331 9.58C66.1331 8.68 65.4631 8.3 64.7231 8.44C64.0431 8.56 63.6131 9.25 63.4331 10.51C63.2731 11.75 63.3731 13.43 63.7331 15.55ZM75.1254 5.98C75.1254 4.22 75.5554 2.86 76.4154 1.9C77.2954 0.939999 78.5154 0.459998 80.0754 0.459998C80.5554 0.459998 81.0154 0.519999 81.4554 0.64C81.9154 0.74 82.3254 0.88 82.6854 1.06C83.0654 1.22 83.3854 1.4 83.6454 1.6C83.9254 1.8 84.1154 1.98 84.2154 2.14C84.3754 2.4 84.4754 2.68 84.5154 2.98C84.5554 3.26 84.5454 3.53 84.4854 3.79C84.4254 4.05 84.3154 4.29 84.1554 4.51C84.0154 4.71 83.8254 4.86 83.5854 4.96C83.1854 5.14 82.8054 5.23 82.4454 5.23C82.0854 5.21 81.7654 5.12 81.4854 4.96C81.2254 4.78 81.0254 4.54 80.8854 4.24C80.7654 3.92 80.7254 3.55 80.7654 3.13C80.8054 2.73 80.7854 2.41 80.7054 2.17C80.6254 1.91 80.4054 1.82 80.0454 1.9C79.8654 1.94 79.7854 2.09 79.8054 2.35C79.8254 2.61 79.8754 2.94 79.9554 3.34C80.0354 3.74 80.1254 4.18 80.2254 4.66C80.3254 5.14 80.3754 5.62 80.3754 6.1V7H82.8354C83.0154 7 83.1454 7.09 83.2254 7.27C83.3054 7.43 83.3454 7.62 83.3454 7.84C83.3454 8.04 83.3054 8.23 83.2254 8.41C83.1454 8.59 83.0154 8.68 82.8354 8.68H80.3754V19.39C80.3754 19.85 80.4354 20.18 80.5554 20.38C80.6954 20.58 80.8754 20.73 81.0954 20.83C81.2154 20.87 81.3054 20.96 81.3654 21.1C81.4254 21.22 81.4554 21.35 81.4554 21.49C81.4754 21.61 81.4654 21.73 81.4254 21.85C81.4054 21.95 81.3454 22 81.2454 22H74.2554C74.1754 22 74.1154 21.95 74.0754 21.85C74.0354 21.73 74.0154 21.61 74.0154 21.49C74.0354 21.35 74.0754 21.22 74.1354 21.1C74.1954 20.96 74.2854 20.87 74.4054 20.83C74.6254 20.73 74.7954 20.58 74.9154 20.38C75.0554 20.18 75.1254 19.85 75.1254 19.39V8.68H74.2854C74.1054 8.68 73.9754 8.59 73.8954 8.41C73.8154 8.23 73.7754 8.04 73.7754 7.84C73.7754 7.62 73.8154 7.43 73.8954 7.27C73.9754 7.09 74.1054 7 74.2854 7H75.1254V5.98ZM101.784 18.55C101.684 19.23 101.424 19.9 101.004 20.56C100.584 21.22 100.084 21.67 99.5041 21.91C98.9641 22.13 98.3741 22.24 97.7341 22.24C97.2141 22.24 96.6941 22.17 96.1741 22.03C95.6541 21.89 95.2241 21.69 94.8841 21.43C94.4841 21.17 94.1541 20.83 93.8941 20.41C93.6341 19.99 93.4541 19.54 93.3541 19.06C93.2741 18.58 93.2641 18.1 93.3241 17.62C93.4041 17.12 93.5741 16.66 93.8341 16.24C94.2141 15.62 94.6341 15.09 95.0941 14.65C95.5741 14.19 96.1241 13.81 96.7441 13.51C97.3641 13.21 98.0841 12.97 98.9041 12.79C99.7241 12.61 100.684 12.48 101.784 12.4V10.84C101.784 10 101.634 9.35 101.334 8.89C101.054 8.41 100.654 8.17 100.134 8.17C99.6141 8.17 99.2041 8.28 98.9041 8.5C98.6041 8.72 98.3741 9 98.2141 9.34C98.0541 9.68 97.9441 10.06 97.8841 10.48C97.8241 10.88 97.7641 11.27 97.7041 11.65C97.6641 11.99 97.4841 12.24 97.1641 12.4C96.8441 12.54 96.4841 12.61 96.0841 12.61C95.8041 12.61 95.5341 12.58 95.2741 12.52C95.0141 12.44 94.7841 12.32 94.5841 12.16C94.3241 11.96 94.1441 11.71 94.0441 11.41C93.9641 11.09 93.9541 10.76 94.0141 10.42C94.0741 10.08 94.2041 9.74 94.4041 9.4C94.6041 9.04 94.8741 8.71 95.2141 8.41C95.7941 7.89 96.5141 7.49 97.3741 7.21C98.2541 6.91 99.1741 6.76 100.134 6.76C102.314 6.76 104.004 7.27 105.204 8.29C106.424 9.29 107.034 10.7 107.034 12.52V17.56L107.064 18.85V18.79C107.064 19.17 107.104 19.48 107.184 19.72C107.284 19.96 107.404 20.15 107.544 20.29C107.684 20.43 107.834 20.53 107.994 20.59C108.154 20.65 108.304 20.7 108.444 20.74C108.604 20.78 108.684 20.89 108.684 21.07C108.704 21.25 108.654 21.4 108.534 21.52C108.374 21.68 108.114 21.8 107.754 21.88C107.414 21.96 106.894 22 106.194 22C105.654 22 105.114 21.97 104.574 21.91C104.054 21.83 103.584 21.67 103.164 21.43C102.744 21.19 102.404 20.85 102.144 20.41C101.904 19.95 101.784 19.35 101.784 18.61V18.55ZM98.3641 18.04C98.3641 18.38 98.4341 18.69 98.5741 18.97C98.7341 19.23 98.9841 19.36 99.3241 19.36C99.6841 19.36 100.004 19.26 100.284 19.06C100.584 18.86 100.834 18.61 101.034 18.31C101.254 18.01 101.424 17.69 101.544 17.35C101.684 16.99 101.764 16.66 101.784 16.36V13.81C101.344 13.81 100.914 13.93 100.494 14.17C100.094 14.41 99.7341 14.73 99.4141 15.13C99.0941 15.51 98.8341 15.96 98.6341 16.48C98.4541 16.98 98.3641 17.5 98.3641 18.04ZM109.73 9.79C109.69 9.55 109.61 9.33 109.49 9.13C109.37 8.93 109.23 8.8 109.07 8.74C108.93 8.7 108.83 8.62 108.77 8.5C108.73 8.38 108.71 8.26 108.71 8.14C108.71 8.02 108.74 7.92 108.8 7.84C108.88 7.74 108.97 7.69 109.07 7.69C109.51 7.69 110.01 7.65 110.57 7.57C111.15 7.49 111.71 7.39 112.25 7.27C112.81 7.15 113.33 7.03 113.81 6.91C114.31 6.79 114.7 6.69 114.98 6.61V9.1C115.14 8.32 115.46 7.71 115.94 7.27C116.42 6.83 117.08 6.61 117.92 6.61C120.04 6.61 121.69 7.28 122.87 8.62C124.05 9.96 124.67 11.84 124.73 14.26V14.62C124.67 17.04 124.05 18.91 122.87 20.23C121.69 21.55 120.04 22.21 117.92 22.21C116.52 22.21 115.54 21.5 114.98 20.08V24.79C114.98 25.25 115.04 25.53 115.16 25.63C115.3 25.73 115.48 25.83 115.7 25.93C115.84 25.99 115.94 26.08 116 26.2C116.06 26.34 116.09 26.47 116.09 26.59C116.11 26.73 116.1 26.85 116.06 26.95C116.02 27.05 115.95 27.1 115.85 27.1H108.89C108.81 27.1 108.74 27.05 108.68 26.95C108.64 26.85 108.62 26.73 108.62 26.59C108.64 26.47 108.68 26.34 108.74 26.2C108.8 26.08 108.9 25.99 109.04 25.93C109.22 25.83 109.37 25.75 109.49 25.69C109.61 25.63 109.69 25.48 109.73 25.24V9.79ZM114.98 16.78C115.08 17.84 115.32 18.62 115.7 19.12C116.08 19.6 116.62 19.84 117.32 19.84C117.98 19.84 118.5 19.37 118.88 18.43C119.26 17.47 119.46 16.14 119.48 14.44C119.46 12.72 119.26 11.38 118.88 10.42C118.5 9.46 117.98 8.98 117.32 8.98C116.2 8.98 115.42 9.75 114.98 11.29V16.78ZM126.374 9.79C126.334 9.55 126.254 9.33 126.134 9.13C126.014 8.93 125.874 8.8 125.714 8.74C125.574 8.7 125.474 8.62 125.414 8.5C125.374 8.38 125.354 8.26 125.354 8.14C125.354 8.02 125.384 7.92 125.444 7.84C125.524 7.74 125.614 7.69 125.714 7.69C126.154 7.69 126.654 7.65 127.214 7.57C127.794 7.49 128.354 7.39 128.894 7.27C129.454 7.15 129.974 7.03 130.454 6.91C130.954 6.79 131.344 6.69 131.624 6.61V9.1C131.784 8.32 132.104 7.71 132.584 7.27C133.064 6.83 133.724 6.61 134.564 6.61C136.684 6.61 138.334 7.28 139.514 8.62C140.694 9.96 141.314 11.84 141.374 14.26V14.62C141.314 17.04 140.694 18.91 139.514 20.23C138.334 21.55 136.684 22.21 134.564 22.21C133.164 22.21 132.184 21.5 131.624 20.08V24.79C131.624 25.25 131.684 25.53 131.804 25.63C131.944 25.73 132.124 25.83 132.344 25.93C132.484 25.99 132.584 26.08 132.644 26.2C132.704 26.34 132.734 26.47 132.734 26.59C132.754 26.73 132.744 26.85 132.704 26.95C132.664 27.05 132.594 27.1 132.494 27.1H125.534C125.454 27.1 125.384 27.05 125.324 26.95C125.284 26.85 125.264 26.73 125.264 26.59C125.284 26.47 125.324 26.34 125.384 26.2C125.444 26.08 125.544 25.99 125.684 25.93C125.864 25.83 126.014 25.75 126.134 25.69C126.254 25.63 126.334 25.48 126.374 25.24V9.79ZM131.624 16.78C131.724 17.84 131.964 18.62 132.344 19.12C132.724 19.6 133.264 19.84 133.964 19.84C134.624 19.84 135.144 19.37 135.524 18.43C135.904 17.47 136.104 16.14 136.124 14.44C136.104 12.72 135.904 11.38 135.524 10.42C135.144 9.46 134.624 8.98 133.964 8.98C132.844 8.98 132.064 9.75 131.624 11.29V16.78ZM150.114 22.27C148.954 22.27 147.894 22.07 146.934 21.67C145.974 21.27 145.154 20.72 144.474 20.02C143.814 19.32 143.304 18.49 142.944 17.53C142.604 16.55 142.464 15.48 142.524 14.32C142.584 13.24 142.814 12.24 143.214 11.32C143.634 10.38 144.174 9.57 144.834 8.89C145.514 8.21 146.294 7.68 147.174 7.3C148.054 6.9 148.994 6.7 149.994 6.7C150.874 6.7 151.694 6.82 152.454 7.06C153.234 7.28 153.914 7.6 154.494 8.02C155.094 8.44 155.564 8.93 155.904 9.49C156.264 10.05 156.474 10.66 156.534 11.32C156.534 11.38 156.534 11.51 156.534 11.71C156.534 11.89 156.504 12.08 156.444 12.28C156.384 12.48 156.274 12.66 156.114 12.82C155.954 12.96 155.704 13.03 155.364 13.03L147.924 13.09V14.32C147.924 14.9 147.994 15.46 148.134 16C148.274 16.54 148.464 17.02 148.704 17.44C148.964 17.86 149.264 18.21 149.604 18.49C149.944 18.77 150.314 18.96 150.714 19.06C151.034 19.14 151.334 19.2 151.614 19.24C151.914 19.26 152.204 19.27 152.484 19.27C153.644 19.27 154.564 18.99 155.244 18.43C155.424 18.29 155.594 18.22 155.754 18.22C155.874 18.22 156.004 18.27 156.144 18.37C156.284 18.47 156.354 18.62 156.354 18.82C156.374 19 156.334 19.14 156.234 19.24C155.874 19.76 155.444 20.21 154.944 20.59C154.464 20.97 153.954 21.29 153.414 21.55C152.874 21.79 152.314 21.97 151.734 22.09C151.174 22.21 150.634 22.27 150.114 22.27ZM149.724 11.38C150.064 11.34 150.404 11.24 150.744 11.08C151.104 10.92 151.284 10.62 151.284 10.18C151.284 9.66 151.164 9.24 150.924 8.92C150.684 8.58 150.374 8.41 149.994 8.41C149.374 8.41 148.914 8.67 148.614 9.19C148.334 9.69 148.144 10.43 148.044 11.41L149.724 11.38ZM163.529 22.24C161.869 22.24 160.629 21.87 159.809 21.13C158.989 20.39 158.579 19.36 158.579 18.04V8.53H156.689C156.509 8.53 156.379 8.45 156.299 8.29C156.219 8.13 156.179 7.96 156.179 7.78C156.179 7.58 156.219 7.4 156.299 7.24C156.379 7.08 156.509 7 156.689 7H157.049C158.869 7 160.199 6.72 161.039 6.16C161.899 5.6 162.329 4.81 162.329 3.79C162.329 3.63 162.409 3.51 162.569 3.43C162.729 3.35 162.899 3.31 163.079 3.31C163.259 3.31 163.429 3.35 163.589 3.43C163.749 3.51 163.829 3.63 163.829 3.79V7H166.079C166.259 7 166.389 7.08 166.469 7.24C166.549 7.4 166.589 7.58 166.589 7.78C166.589 7.96 166.549 8.13 166.469 8.29C166.389 8.45 166.259 8.53 166.079 8.53H163.829V17.32C163.829 17.74 163.819 18.12 163.799 18.46C163.799 18.8 163.819 19.1 163.859 19.36C163.899 19.6 163.989 19.81 164.129 19.99C164.269 20.15 164.499 20.28 164.819 20.38C165.079 20.48 165.349 20.5 165.629 20.44C165.929 20.36 166.169 20.22 166.349 20.02C166.589 19.74 166.829 19.65 167.069 19.75C167.289 19.85 167.369 20.05 167.309 20.35C167.249 20.61 167.079 20.86 166.799 21.1C166.539 21.34 166.219 21.54 165.839 21.7C165.479 21.86 165.089 21.99 164.669 22.09C164.269 22.19 163.889 22.24 163.529 22.24ZM168.338 9.79C168.298 9.55 168.218 9.33 168.098 9.13C167.978 8.93 167.838 8.8 167.678 8.74C167.538 8.7 167.438 8.62 167.378 8.5C167.338 8.38 167.318 8.26 167.318 8.14C167.318 8.02 167.348 7.92 167.408 7.84C167.488 7.74 167.578 7.69 167.678 7.69C168.078 7.69 168.518 7.67 168.998 7.63C169.478 7.57 169.968 7.49 170.468 7.39L173.588 6.61V19.39C173.588 19.85 173.648 20.18 173.768 20.38C173.908 20.58 174.088 20.73 174.308 20.83C174.428 20.87 174.518 20.96 174.578 21.1C174.638 21.22 174.668 21.35 174.668 21.49C174.688 21.61 174.678 21.73 174.638 21.85C174.618 21.95 174.558 22 174.458 22H167.468C167.388 22 167.328 21.95 167.288 21.85C167.248 21.73 167.228 21.61 167.228 21.49C167.248 21.35 167.288 21.22 167.348 21.1C167.408 20.96 167.498 20.87 167.618 20.83C167.838 20.73 168.008 20.58 168.128 20.38C168.268 20.18 168.338 19.85 168.338 19.39V9.79ZM167.708 4.33C167.708 3.69 167.978 3.2 168.518 2.86C169.078 2.5 169.848 2.32 170.828 2.32C171.808 2.32 172.568 2.5 173.108 2.86C173.648 3.2 173.918 3.69 173.918 4.33C173.918 4.97 173.648 5.47 173.108 5.83C172.568 6.17 171.808 6.34 170.828 6.34C169.848 6.34 169.078 6.17 168.518 5.83C167.978 5.47 167.708 4.97 167.708 4.33ZM181.788 22.24C180.128 22.24 178.888 21.87 178.068 21.13C177.248 20.39 176.838 19.36 176.838 18.04V8.53H174.948C174.768 8.53 174.638 8.45 174.558 8.29C174.478 8.13 174.438 7.96 174.438 7.78C174.438 7.58 174.478 7.4 174.558 7.24C174.638 7.08 174.768 7 174.948 7H175.308C177.128 7 178.458 6.72 179.298 6.16C180.158 5.6 180.588 4.81 180.588 3.79C180.588 3.63 180.668 3.51 180.828 3.43C180.988 3.35 181.158 3.31 181.338 3.31C181.518 3.31 181.688 3.35 181.848 3.43C182.008 3.51 182.088 3.63 182.088 3.79V7H184.338C184.518 7 184.648 7.08 184.728 7.24C184.808 7.4 184.848 7.58 184.848 7.78C184.848 7.96 184.808 8.13 184.728 8.29C184.648 8.45 184.518 8.53 184.338 8.53H182.088V17.32C182.088 17.74 182.078 18.12 182.058 18.46C182.058 18.8 182.078 19.1 182.118 19.36C182.158 19.6 182.248 19.81 182.388 19.99C182.528 20.15 182.758 20.28 183.078 20.38C183.338 20.48 183.608 20.5 183.888 20.44C184.188 20.36 184.428 20.22 184.608 20.02C184.848 19.74 185.088 19.65 185.328 19.75C185.548 19.85 185.628 20.05 185.568 20.35C185.508 20.61 185.338 20.86 185.058 21.1C184.798 21.34 184.478 21.54 184.098 21.7C183.738 21.86 183.348 21.99 182.928 22.09C182.528 22.19 182.148 22.24 181.788 22.24ZM192.228 22.27C191.068 22.27 190.008 22.07 189.048 21.67C188.088 21.27 187.268 20.72 186.588 20.02C185.928 19.32 185.418 18.49 185.058 17.53C184.718 16.55 184.578 15.48 184.638 14.32C184.698 13.24 184.928 12.24 185.328 11.32C185.748 10.38 186.288 9.57 186.948 8.89C187.628 8.21 188.408 7.68 189.288 7.3C190.168 6.9 191.108 6.7 192.108 6.7C192.988 6.7 193.808 6.82 194.568 7.06C195.348 7.28 196.028 7.6 196.608 8.02C197.208 8.44 197.678 8.93 198.018 9.49C198.378 10.05 198.588 10.66 198.648 11.32C198.648 11.38 198.648 11.51 198.648 11.71C198.648 11.89 198.618 12.08 198.558 12.28C198.498 12.48 198.388 12.66 198.228 12.82C198.068 12.96 197.818 13.03 197.478 13.03L190.038 13.09V14.32C190.038 14.9 190.108 15.46 190.248 16C190.388 16.54 190.578 17.02 190.818 17.44C191.078 17.86 191.378 18.21 191.718 18.49C192.058 18.77 192.428 18.96 192.828 19.06C193.148 19.14 193.448 19.2 193.728 19.24C194.028 19.26 194.318 19.27 194.598 19.27C195.758 19.27 196.678 18.99 197.358 18.43C197.538 18.29 197.708 18.22 197.868 18.22C197.988 18.22 198.118 18.27 198.258 18.37C198.398 18.47 198.468 18.62 198.468 18.82C198.488 19 198.448 19.14 198.348 19.24C197.988 19.76 197.558 20.21 197.058 20.59C196.578 20.97 196.068 21.29 195.528 21.55C194.988 21.79 194.428 21.97 193.848 22.09C193.288 22.21 192.748 22.27 192.228 22.27ZM191.838 11.38C192.178 11.34 192.518 11.24 192.858 11.08C193.218 10.92 193.398 10.62 193.398 10.18C193.398 9.66 193.278 9.24 193.038 8.92C192.798 8.58 192.488 8.41 192.108 8.41C191.488 8.41 191.028 8.67 190.728 9.19C190.448 9.69 190.258 10.43 190.158 11.41L191.838 11.38Z" fill="black" fill-opacity="0.87"/>
</svg>
